#Comment line ignore any data following # character 
#Hierarchical Translation and Rotation (.htr) file 
[Header]	
#Header keywords are followed by a single value 
FileType HTR		#Single word string
DataType HTRS		#Translation followed by rotation and scale data
FileVersion 1		#integer
NumSegments 84		#integer
NumFrames 2		#integer
DataFrameRate 30		#integer, data frame rate in this file
EulerRotationOrder ZYX
CalibrationUnits mm
RotationUnits Degrees
GlobalAxisofGravity Y
BoneLengthAxis Y
ScaleFactor 1.00
[SegmentNames&Hierarchy]
#CHILD	PARENT
MASTER GLOBAL
root MASTER
chest root
L_mid_tent01 root
R_mid_tent01 root
spine01 root
Bip01_Neck chest
L_humerus chest
R_humerus chest
weapon_bone chest
Bip01_Head Bip01_Neck
eye_left_bone Bip01_Head
eye_right_bone Bip01_Head
L_forearm L_humerus
L_front_hand L_forearm
L_weapon_bone L_forearm
L_front_hand01_01 L_front_hand
L_front_hand02_01 L_front_hand
L_front_hand03_01 L_front_hand
L_front_hand01_02 L_front_hand01_01
L_front_hand02_02 L_front_hand02_01
L_front_hand03_02 L_front_hand03_01
R_forearm R_humerus
R_front_hand R_forearm
R_weapon_bone R_forearm
R_front_hand01_01 R_front_hand
R_front_hand02_01 R_front_hand
R_front_hand03_01 R_front_hand
R_front_hand01_02 R_front_hand01_01
R_front_hand02_02 R_front_hand02_01
R_front_hand03_02 R_front_hand03_01
null_rope01_connect L_mid_tent01
Rope1_Seg01 null_rope01_connect
Rope1_Seg02 Rope1_Seg01
Rope1_Seg03 Rope1_Seg02
Rope1_Seg04 Rope1_Seg03
Rope1_Seg05 Rope1_Seg04
Rope1_Seg06 Rope1_Seg05
Rope1_Seg07 Rope1_Seg06
Rope1_Seg09 Rope1_Seg07
L_mid_hand01 Rope1_Seg09
L_mid_hand02 Rope1_Seg09
L_mid_hand03 Rope1_Seg09
null_rope02_connect R_mid_tent01
Rope2_Seg01 null_rope02_connect
Rope2_Seg02 Rope2_Seg01
Rope2_Seg03 Rope2_Seg02
Rope2_Seg04 Rope2_Seg03
Rope2_Seg05 Rope2_Seg04
Rope2_Seg06 Rope2_Seg05
Rope2_Seg07 Rope2_Seg06
Rope2_Seg09 Rope2_Seg07
R_mid_hand01 Rope2_Seg09
R_mid_hand02 Rope2_Seg09
R_mid_hand03 Rope2_Seg09
spine02 spine01
spine03 spine02
pelvis spine03
null_rope03_connect pelvis
null_rope04_connect pelvis
Rope3_Seg01 null_rope03_connect
Rope3_Seg02 Rope3_Seg01
Rope3_Seg03 Rope3_Seg02
Rope3_Seg04 Rope3_Seg03
Rope3_Seg05 Rope3_Seg04
Rope3_Seg06 Rope3_Seg05
Rope3_Seg07 Rope3_Seg06
Rope3_Seg08 Rope3_Seg07
Rope3_Seg09 Rope3_Seg08
R_rear_hand01 Rope3_Seg09
R_rear_hand02 Rope3_Seg09
R_rear_hand03 Rope3_Seg09
Rope4_Seg01 null_rope04_connect
Rope4_Seg02 Rope4_Seg01
Rope4_Seg03 Rope4_Seg02
Rope4_Seg04 Rope4_Seg03
Rope4_Seg05 Rope4_Seg04
Rope4_Seg06 Rope4_Seg05
Rope4_Seg07 Rope4_Seg06
Rope4_Seg08 Rope4_Seg07
Rope4_Seg09 Rope4_Seg08
L_rear_hand01 Rope4_Seg09
L_rear_hand02 Rope4_Seg09
L_rear_hand03 Rope4_Seg09
[BasePosition]
#SegmentName Tx, Ty, Tz, Rx, Ry, Rz, BoneLength
MASTER 0.000000 0.000000 0.000000 -90.000000 0.000000 0.000000 10.000000 
root 0.000000 0.000000 0.000000 0.000000 0.000000 0.000000 10.000000 
chest 0.000000 0.000000 0.000000 0.000000 0.000000 0.000000 10.000000 
L_mid_tent01 0.000000 0.000000 0.000000 0.000000 0.000000 0.000000 10.000000 
R_mid_tent01 0.000000 0.000000 0.000000 0.000000 0.000000 0.000000 10.000000 
spine01 0.000000 0.000000 0.000000 0.000000 0.000000 0.000000 10.000000 
Bip01_Neck 0.000000 0.000000 0.000000 0.000000 0.000000 0.000000 10.000000 
L_humerus 0.000000 0.000000 0.000000 0.000000 0.000000 0.000000 10.000000 
R_humerus 0.000000 0.000000 0.000000 0.000000 0.000000 0.000000 10.000000 
weapon_bone 0.000000 0.000000 0.000000 0.000000 0.000000 0.000000 10.000000 
Bip01_Head 0.000000 0.000000 0.000000 0.000000 0.000000 0.000000 10.000000 
eye_left_bone 0.000000 0.000000 0.000000 0.000000 0.000000 0.000000 10.000000 
eye_right_bone 0.000000 0.000000 0.000000 0.000000 0.000000 0.000000 10.000000 
L_forearm 0.000000 0.000000 0.000000 0.000000 0.000000 0.000000 10.000000 
L_front_hand 0.000000 0.000000 0.000000 0.000000 0.000000 0.000000 10.000000 
L_weapon_bone 0.000000 0.000000 0.000000 0.000000 0.000000 0.000000 10.000000 
L_front_hand01_01 0.000000 0.000000 0.000000 0.000000 0.000000 0.000000 10.000000 
L_front_hand02_01 0.000000 0.000000 0.000000 0.000000 0.000000 0.000000 10.000000 
L_front_hand03_01 0.000000 0.000000 0.000000 0.000000 0.000000 0.000000 10.000000 
L_front_hand01_02 0.000000 0.000000 0.000000 0.000000 0.000000 0.000000 10.000000 
L_front_hand02_02 0.000000 0.000000 0.000000 0.000000 0.000000 0.000000 10.000000 
L_front_hand03_02 0.000000 0.000000 0.000000 0.000000 0.000000 0.000000 10.000000 
R_forearm 0.000000 0.000000 0.000000 0.000000 0.000000 0.000000 10.000000 
R_front_hand 0.000000 0.000000 0.000000 0.000000 0.000000 0.000000 10.000000 
R_weapon_bone 0.000000 0.000000 0.000000 0.000000 0.000000 0.000000 10.000000 
R_front_hand01_01 0.000000 0.000000 0.000000 0.000000 0.000000 0.000000 10.000000 
R_front_hand02_01 0.000000 0.000000 0.000000 0.000000 0.000000 0.000000 10.000000 
R_front_hand03_01 0.000000 0.000000 0.000000 0.000000 0.000000 0.000000 10.000000 
R_front_hand01_02 0.000000 0.000000 0.000000 0.000000 0.000000 0.000000 10.000000 
R_front_hand02_02 0.000000 0.000000 0.000000 0.000000 0.000000 0.000000 10.000000 
R_front_hand03_02 0.000000 0.000000 0.000000 0.000000 0.000000 0.000000 10.000000 
null_rope01_connect 0.000000 0.000000 0.000000 0.000000 0.000000 0.000000 10.000000 
Rope1_Seg01 0.000000 0.000000 0.000000 0.000000 0.000000 0.000000 10.000000 
Rope1_Seg02 0.000000 0.000000 0.000000 0.000000 0.000000 0.000000 10.000000 
Rope1_Seg03 0.000000 0.000000 0.000000 0.000000 0.000000 0.000000 10.000000 
Rope1_Seg04 0.000000 0.000000 0.000000 0.000000 0.000000 0.000000 10.000000 
Rope1_Seg05 0.000000 0.000000 0.000000 0.000000 0.000000 0.000000 10.000000 
Rope1_Seg06 0.000000 0.000000 0.000000 0.000000 0.000000 0.000000 10.000000 
Rope1_Seg07 0.000000 0.000000 0.000000 0.000000 0.000000 0.000000 10.000000 
Rope1_Seg09 0.000000 0.000000 0.000000 0.000000 0.000000 0.000000 10.000000 
L_mid_hand01 0.000000 0.000000 0.000000 0.000000 0.000000 0.000000 10.000000 
L_mid_hand02 0.000000 0.000000 0.000000 0.000000 0.000000 0.000000 10.000000 
L_mid_hand03 0.000000 0.000000 0.000000 0.000000 0.000000 0.000000 10.000000 
null_rope02_connect 0.000000 0.000000 0.000000 0.000000 0.000000 0.000000 10.000000 
Rope2_Seg01 0.000000 0.000000 0.000000 0.000000 0.000000 0.000000 10.000000 
Rope2_Seg02 0.000000 0.000000 0.000000 0.000000 0.000000 0.000000 10.000000 
Rope2_Seg03 0.000000 0.000000 0.000000 0.000000 0.000000 0.000000 10.000000 
Rope2_Seg04 0.000000 0.000000 0.000000 0.000000 0.000000 0.000000 10.000000 
Rope2_Seg05 0.000000 0.000000 0.000000 0.000000 0.000000 0.000000 10.000000 
Rope2_Seg06 0.000000 0.000000 0.000000 0.000000 0.000000 0.000000 10.000000 
Rope2_Seg07 0.000000 0.000000 0.000000 0.000000 0.000000 0.000000 10.000000 
Rope2_Seg09 0.000000 0.000000 0.000000 0.000000 0.000000 0.000000 10.000000 
R_mid_hand01 0.000000 0.000000 0.000000 0.000000 0.000000 0.000000 10.000000 
R_mid_hand02 0.000000 0.000000 0.000000 0.000000 0.000000 0.000000 10.000000 
R_mid_hand03 0.000000 0.000000 0.000000 0.000000 0.000000 0.000000 10.000000 
spine02 0.000000 0.000000 0.000000 0.000000 0.000000 0.000000 10.000000 
spine03 0.000000 0.000000 0.000000 0.000000 0.000000 0.000000 10.000000 
pelvis 0.000000 0.000000 0.000000 0.000000 0.000000 0.000000 10.000000 
null_rope03_connect 0.000000 0.000000 0.000000 0.000000 0.000000 0.000000 10.000000 
null_rope04_connect 0.000000 0.000000 0.000000 0.000000 0.000000 0.000000 10.000000 
Rope3_Seg01 0.000000 0.000000 0.000000 0.000000 0.000000 0.000000 10.000000 
Rope3_Seg02 0.000000 0.000000 0.000000 0.000000 0.000000 0.000000 10.000000 
Rope3_Seg03 0.000000 0.000000 0.000000 0.000000 0.000000 0.000000 10.000000 
Rope3_Seg04 0.000000 0.000000 0.000000 0.000000 0.000000 0.000000 10.000000 
Rope3_Seg05 0.000000 0.000000 0.000000 0.000000 0.000000 0.000000 10.000000 
Rope3_Seg06 0.000000 0.000000 0.000000 0.000000 0.000000 0.000000 10.000000 
Rope3_Seg07 0.000000 0.000000 0.000000 0.000000 0.000000 0.000000 10.000000 
Rope3_Seg08 0.000000 0.000000 0.000000 0.000000 0.000000 0.000000 10.000000 
Rope3_Seg09 0.000000 0.000000 0.000000 0.000000 0.000000 0.000000 10.000000 
R_rear_hand01 0.000000 0.000000 0.000000 0.000000 0.000000 0.000000 10.000000 
R_rear_hand02 0.000000 0.000000 0.000000 0.000000 0.000000 0.000000 10.000000 
R_rear_hand03 0.000000 0.000000 0.000000 0.000000 0.000000 0.000000 10.000000 
Rope4_Seg01 0.000000 0.000000 0.000000 0.000000 0.000000 0.000000 10.000000 
Rope4_Seg02 0.000000 0.000000 0.000000 0.000000 0.000000 0.000000 10.000000 
Rope4_Seg03 0.000000 0.000000 0.000000 0.000000 0.000000 0.000000 10.000000 
Rope4_Seg04 0.000000 0.000000 0.000000 0.000000 0.000000 0.000000 10.000000 
Rope4_Seg05 0.000000 0.000000 0.000000 0.000000 0.000000 0.000000 10.000000 
Rope4_Seg06 0.000000 0.000000 0.000000 0.000000 0.000000 0.000000 10.000000 
Rope4_Seg07 0.000000 0.000000 0.000000 0.000000 0.000000 0.000000 10.000000 
Rope4_Seg08 0.000000 0.000000 0.000000 0.000000 0.000000 0.000000 10.000000 
Rope4_Seg09 0.000000 0.000000 0.000000 0.000000 0.000000 0.000000 10.000000 
L_rear_hand01 0.000000 0.000000 0.000000 0.000000 0.000000 0.000000 10.000000 
L_rear_hand02 0.000000 0.000000 0.000000 0.000000 0.000000 0.000000 10.000000 
L_rear_hand03 0.000000 0.000000 0.000000 0.000000 0.000000 0.000000 10.000000 
#Beginning of Data. Separated by tabs
#Fr	Tx	Ty	Tz	Rx	Ry	Rz	SF
[MASTER]
3 -0.000046 374.546936 0.000000 0.001660 0.001660 0.001660 374.546967
4 -0.000075 568.696594 0.000000 0.001660 0.001660 0.001660 568.696594
[root]
3 17.582371 -42.783627 610.086121 -92.791237 9.353106 -89.281662 611.837158
4 10.434294 -23.194000 580.409119 -91.508621 8.146391 -89.782097 580.966064
[chest]
3 -84.512650 -34.090519 0.000000 5.086173 6.650567 165.045105 91.129311
4 -84.512650 -34.090519 0.000000 5.353028 3.342466 165.652634 91.129311
[L_mid_tent01]
3 27.299465 22.177607 -249.918045 -6.341855 35.825279 61.845642 252.380936
4 27.299458 22.177658 -249.918076 -13.439247 33.517841 47.597427 252.380966
[R_mid_tent01]
3 23.228794 24.509907 226.238495 -124.215981 -68.354713 54.046219 228.744751
4 23.228794 24.509907 226.238495 -57.033886 -60.127140 12.978499 228.744751
[spine01]
3 -0.361383 -0.195265 0.000000 0.751858 0.328278 17.588507 0.410763
4 -0.361383 -0.195265 0.000000 0.735250 0.318801 17.719801 0.410763
[Bip01_Neck]
3 165.484543 71.581718 0.000119 175.896118 1.177290 24.871183 180.302734
4 165.484543 71.581718 0.000119 175.896118 1.177290 24.871185 180.302734
[L_humerus]
3 -13.983130 -135.272980 -120.471481 -2.700109 68.094643 87.043510 181.680161
4 -13.983130 -135.272980 -120.471481 -2.689973 67.474792 87.039024 181.680161
[R_humerus]
3 -13.983309 -135.273102 125.287651 -32.424179 -57.110538 113.206215 184.909012
4 -13.983309 -135.273102 125.287651 -37.753342 -56.065941 121.282059 184.909012
[weapon_bone]
3 235.964890 -300.705902 0.000000 0.000000 -89.951546 -128.212341 382.234833
4 235.964890 -300.705902 0.000000 0.000000 -89.951546 -128.212341 382.234833
[Bip01_Head]
3 193.976898 112.376404 2.997879 -6.086871 -3.312065 -40.835384 224.197418
4 194.348526 114.090500 2.784878 -4.564183 -2.354611 -43.094334 225.379120
[eye_left_bone]
3 -24.626970 125.451866 -64.772606 0.000000 -90.000000 -99.840431 143.318359
4 -24.626970 125.451866 -64.772606 0.000000 -90.000000 -99.840431 143.318359
[eye_right_bone]
3 -24.626970 125.451866 64.327362 0.000000 -89.960434 80.159386 143.117676
4 -24.626970 125.451866 64.327362 0.000000 -89.960434 80.159386 143.117676
[L_forearm]
3 322.776093 0.000000 -0.000119 0.000178 -0.002340 -98.707298 322.776093
4 322.776093 0.000000 -0.000119 0.000186 -0.002340 -99.085930 322.776093
[L_front_hand]
3 241.149185 -0.042021 -3.300071 -178.667953 -1.835447 -27.422350 241.171753
4 241.149185 -0.042021 -3.300071 -178.667953 -1.835447 -27.422344 241.171753
[L_weapon_bone]
3 156.183838 0.000000 0.000000 0.000014 0.000007 0.000001 156.183838
4 156.183838 0.000000 0.000000 0.000014 0.000007 0.000001 156.183838
[L_front_hand01_01]
3 86.095154 20.947098 -0.655860 -0.366594 -0.477154 75.385574 88.609184
4 86.095154 20.947098 -0.655860 -0.366594 -0.477154 75.385574 88.609184
[L_front_hand02_01]
3 86.935165 -11.437475 24.513514 154.403519 -59.888931 -61.371990 91.046425
4 86.935165 -11.437475 24.513514 154.403488 -59.888916 -61.371967 91.046425
[L_front_hand03_01]
3 86.637497 -14.123976 -20.424902 -153.913849 58.118130 -62.702866 90.126129
4 86.637497 -14.123976 -20.424902 -153.913849 58.118130 -62.702866 90.126129
[L_front_hand01_02]
3 71.020905 -0.000179 0.000030 0.000334 -0.002323 -106.379700 71.020905
4 71.020905 -0.000179 0.000030 0.000334 -0.002323 -106.379684 71.020905
[L_front_hand02_02]
3 71.020927 -0.000119 0.000060 0.000334 -0.002323 -106.379700 71.020927
4 71.020927 -0.000119 0.000060 0.000334 -0.002323 -106.379684 71.020927
[L_front_hand03_02]
3 71.020905 -0.000060 0.000060 0.000334 -0.002323 -106.379700 71.020905
4 71.020905 -0.000060 0.000060 0.000334 -0.002323 -106.379684 71.020905
[R_forearm]
3 322.776428 -0.000060 0.000030 0.209510 0.012475 -94.278358 322.776428
4 322.776428 -0.000060 0.000030 0.212539 0.020049 -96.405724 322.776428
[R_front_hand]
3 238.847015 -0.006795 2.210259 -3.311403 0.238849 -46.637703 238.857239
4 238.847015 -0.006795 2.210259 -5.286515 -0.324320 -43.863811 238.857239
[R_weapon_bone]
3 155.664093 0.002503 -0.000030 0.003487 0.001180 -90.988930 155.664078
4 155.664093 0.002503 -0.000030 0.003487 0.001180 -90.988930 155.664078
[R_front_hand01_01]
3 87.624611 14.231146 22.918642 -116.960213 3.496675 -1.324139 91.683487
4 87.624611 14.231146 22.918642 -116.960213 3.496675 -1.324139 91.683487
[R_front_hand02_01]
3 89.356956 14.367283 -19.491137 118.419647 -4.257089 0.609827 92.579636
4 89.356956 14.367283 -19.491137 118.419647 -4.257089 0.609827 92.579636
[R_front_hand03_01]
3 87.286232 -22.307278 -0.143439 -0.387970 -0.231462 4.232001 90.091743
4 87.286232 -22.307278 -0.143439 -0.387970 -0.231462 4.232001 90.091743
[R_front_hand01_02]
3 71.020905 0.000060 0.000119 0.001777 0.001534 8.377220 71.020905
4 71.020905 0.000060 0.000119 0.001777 0.001534 8.377220 71.020905
[R_front_hand02_02]
3 71.020844 -0.000030 -0.000119 0.001777 0.001534 8.377220 71.020836
4 71.020844 -0.000030 -0.000119 0.001777 0.001534 8.377220 71.020836
[R_front_hand03_02]
3 71.020905 0.000000 0.000030 0.001777 0.001534 8.377220 71.020905
4 71.020905 0.000000 0.000030 0.001777 0.001534 8.377220 71.020905
[null_rope01_connect]
3 328.732483 0.000000 -0.000238 -173.885742 -51.101830 -168.842728 328.732483
4 328.732483 0.000000 -0.000238 -170.085770 -52.795395 -159.491486 328.732483
[Rope1_Seg01]
3 0.000000 0.000000 0.000000 166.833282 -51.188904 97.519875 0.000000
4 0.000000 0.000000 0.000000 169.651138 -57.820515 100.707237 0.000000
[Rope1_Seg02]
3 139.999863 -0.000179 0.000000 -11.823092 -7.403736 -7.333819 139.999863
4 139.999863 -0.000179 0.000000 -7.022429 -4.871504 -5.424828 139.999863
[Rope1_Seg03]
3 139.999924 0.000060 -0.000060 -17.801821 -11.465514 -20.050730 139.999924
4 139.999924 0.000060 -0.000060 -12.572416 -9.030400 -13.649734 139.999924
[Rope1_Seg04]
3 139.999924 -0.000060 -0.000119 -10.499660 -4.511500 -37.368042 139.999924
4 139.999924 -0.000060 -0.000119 -11.364985 -8.637905 -38.556854 139.999924
[Rope1_Seg05]
3 139.999832 0.000119 -0.000060 1.977198 -14.084641 -30.796467 139.999832
4 139.999832 0.000119 -0.000060 5.625046 -17.860798 -43.183147 139.999832
[Rope1_Seg06]
3 139.999954 0.000119 -0.000060 3.306596 -9.274049 -16.523499 139.999954
4 139.999954 0.000119 -0.000060 6.037338 -11.447250 -19.196043 139.999954
[Rope1_Seg07]
3 139.999985 0.000060 0.000000 1.602899 -3.446072 -7.236360 139.999985
4 139.999985 0.000060 0.000000 2.196517 -3.881978 -6.827722 139.999985
[Rope1_Seg09]
3 121.602913 0.000119 -0.000089 -89.793175 -1.359789 0.847147 121.602913
4 121.602913 0.000119 -0.000089 -89.793175 -1.359789 0.847147 121.602913
[L_mid_hand01]
3 103.859421 1.038730 8.195221 114.520172 -53.310745 -20.623032 104.187431
4 103.859421 1.038730 8.195221 114.520103 -53.310879 -20.622932 104.187431
[L_mid_hand02]
3 105.572853 -4.139662 -10.864139 -155.067673 38.166626 -52.448818 106.211075
4 105.572853 -4.139662 -10.864139 -155.067673 38.166618 -52.448807 106.211075
[L_mid_hand03]
3 104.641464 17.579376 -3.913581 -10.970129 15.317459 57.626942 106.179977
4 104.641464 17.579376 -3.913581 -10.970129 15.317463 57.626957 106.179977
[null_rope02_connect]
3 328.732849 0.000179 -0.000119 148.807877 14.934006 -18.608648 328.732849
4 328.732849 0.000179 -0.000119 129.757980 -14.441600 -26.632477 328.732849
[Rope2_Seg01]
3 0.000005 0.000101 0.000148 -39.327511 2.194931 -3.876952 0.000179
4 0.000008 0.000115 0.000146 -48.053909 12.181211 -15.455304 0.000186
[Rope2_Seg02]
3 139.999741 -0.000060 -0.000119 -25.066566 -6.847896 47.721554 139.999756
4 139.999741 -0.000060 -0.000119 -26.171974 -4.222565 26.308813 139.999756
[Rope2_Seg03]
3 140.000107 0.000030 0.000000 -3.385175 -16.415943 21.264668 140.000107
4 140.000107 0.000030 0.000000 -12.652612 -22.060307 28.702177 140.000107
[Rope2_Seg04]
3 139.999802 0.000000 -0.000060 1.424712 -3.303124 8.801776 139.999802
4 139.999802 0.000000 -0.000060 -1.726703 -13.222673 13.722265 139.999802
[Rope2_Seg05]
3 139.999985 -0.000060 0.000119 5.220332 1.676273 14.879215 139.999985
4 139.999985 -0.000060 0.000119 3.209103 -3.501616 19.185299 139.999985
[Rope2_Seg06]
3 139.999893 -0.000030 -0.000119 10.806798 5.299728 22.986170 139.999893
4 139.999893 -0.000030 -0.000119 9.559811 -0.351665 24.314655 139.999893
[Rope2_Seg07]
3 139.999893 0.000060 -0.000060 7.875087 5.246443 15.398046 139.999893
4 139.999893 0.000060 -0.000060 6.731357 0.606913 12.711500 139.999893
[Rope2_Seg09]
3 121.338966 0.000089 -0.000060 66.044922 -0.639230 -1.445770 121.338966
4 121.338966 0.000089 -0.000060 69.150055 -0.499436 -1.477459 121.338966
[R_mid_hand01]
3 104.680779 11.144459 -10.335981 -39.248650 29.171114 33.551922 105.778534
4 104.680779 11.144459 -10.335981 -39.248650 29.171114 33.551922 105.778534
[R_mid_hand02]
3 104.070427 2.443552 8.231699 71.586517 -38.253605 12.182658 104.424065
4 104.070427 2.443552 8.231699 71.586517 -38.253605 12.182658 104.424065
[R_mid_hand03]
3 106.028137 -11.221827 -5.996406 -168.987167 11.419018 -42.774643 106.788818
4 106.028137 -11.221827 -5.996406 -168.987167 11.419018 -42.774643 106.788818
[spine02]
3 129.756927 0.001550 0.000119 -0.249673 -4.988350 -4.349806 129.756927
4 129.756927 0.001550 0.000119 -0.246610 -5.592684 -4.349698 129.756927
[spine03]
3 78.556503 0.095715 -5.458683 0.893478 4.783097 3.093600 78.745987
4 78.556595 0.095584 -5.457787 1.270441 4.585576 7.884521 78.746017
[pelvis]
3 169.435242 0.051022 0.000000 -0.040650 -0.506026 2.410647 169.435257
4 169.435242 0.051022 0.000000 -0.043084 -0.507868 2.727273 169.435257
[null_rope03_connect]
3 -1.257226 -2.466202 137.391083 148.054184 -88.106583 -86.098022 137.418976
4 -1.257226 -2.466202 137.391083 92.939384 -89.042229 -35.022282 137.418976
[null_rope04_connect]
3 -1.259640 -2.480268 -137.844437 148.054184 -88.106583 -86.098022 137.872513
4 -1.259640 -2.480268 -137.844437 92.939384 -89.042229 -35.022282 137.872513
[Rope3_Seg01]
3 0.000072 -0.000069 0.000000 -131.044327 -6.529895 -74.462906 0.000100
4 0.000070 -0.000085 0.000000 -130.833755 8.125538 -78.090652 0.000110
[Rope3_Seg02]
3 139.999924 -0.000119 0.000060 0.027467 -9.762926 9.998936 139.999924
4 139.999924 -0.000119 0.000060 -0.363304 -1.882705 5.331841 139.999924
[Rope3_Seg03]
3 139.999924 -0.000119 0.000119 -0.116229 -9.289868 6.460132 139.999924
4 139.999924 -0.000119 0.000119 -0.682517 -2.100044 5.442620 139.999924
[Rope3_Seg04]
3 139.999924 0.000119 0.000000 -0.242926 -6.541559 6.270302 139.999924
4 139.999924 0.000119 0.000000 -1.220762 -2.920058 5.591081 139.999924
[Rope3_Seg05]
3 139.999924 -0.000238 0.000060 -0.147546 0.912989 9.909459 139.999924
4 139.999924 -0.000238 0.000060 -1.003264 -0.805393 6.253653 139.999924
[Rope3_Seg06]
3 139.999893 -0.000119 -0.000060 0.021647 1.694778 6.702981 139.999893
4 139.999893 -0.000119 -0.000060 -0.027307 0.546680 3.261201 139.999893
[Rope3_Seg07]
3 139.999771 0.000060 -0.000119 -0.032585 0.175827 3.478961 139.999771
4 139.999771 0.000060 -0.000119 0.075193 -0.039184 1.935481 139.999771
[Rope3_Seg08]
3 139.999985 -0.000060 0.000000 0.147119 0.107744 2.133513 139.999985
4 139.999985 -0.000060 0.000000 0.248546 -0.040456 1.173720 139.999985
[Rope3_Seg09]
3 90.185997 -0.000179 -0.000060 88.766632 -1.362648 -0.846896 90.185997
4 90.185997 -0.000179 -0.000060 87.602776 -1.357487 -0.847289 90.185997
[R_rear_hand01]
3 103.366196 -6.073594 -10.757982 -156.049316 6.070421 -2.795877 104.101845
4 103.366196 -6.073594 -10.757982 -156.303818 7.047817 -5.016659 104.101845
[R_rear_hand02]
3 100.509819 12.039542 -7.992327 -38.708427 1.958057 5.461192 101.543350
4 100.509819 12.039542 -7.992327 -38.618435 3.465873 7.345703 101.543350
[R_rear_hand03]
3 101.539970 5.215704 5.435467 84.307625 -2.361042 4.099039 101.819031
4 101.539970 5.215704 5.435467 84.293983 -4.764470 4.337550 101.819031
[Rope4_Seg01]
3 0.000093 0.000042 0.000000 43.333084 5.957534 -124.407364 0.000102
4 0.000092 0.000006 0.000000 43.918831 15.889629 -114.082695 0.000092
[Rope4_Seg02]
3 139.999985 0.000060 0.000119 -2.709297 14.302880 -3.599505 139.999985
4 139.999985 0.000060 0.000119 -1.084881 6.646548 -6.485396 139.999985
[Rope4_Seg03]
3 139.999924 0.000000 -0.000238 -0.101506 4.211644 0.289907 139.999924
4 139.999924 0.000000 -0.000238 -0.149918 1.437839 -2.616936 139.999924
[Rope4_Seg04]
3 139.999985 0.000000 0.000119 -0.173645 4.619945 -1.891267 139.999985
4 139.999985 0.000000 0.000119 -0.068293 2.434448 -1.429458 139.999985
[Rope4_Seg05]
3 139.999802 -0.000060 -0.000119 -0.023296 7.157285 -4.440886 139.999802
4 139.999802 -0.000060 -0.000119 0.034708 4.043587 -1.026462 139.999802
[Rope4_Seg06]
3 139.999924 0.000000 0.000060 0.518230 6.501654 -4.081347 139.999924
4 139.999924 0.000000 0.000060 0.201969 3.668640 -0.852861 139.999924
[Rope4_Seg07]
3 139.999802 0.000000 0.000000 0.730307 4.522207 -2.736616 139.999802
4 139.999802 0.000000 0.000000 0.274256 2.342856 -0.700113 139.999802
[Rope4_Seg08]
3 139.999924 0.000000 0.000119 -0.882343 3.108353 -1.942055 139.999924
4 139.999924 0.000000 0.000119 -1.321131 1.628180 -0.496924 139.999924
[Rope4_Seg09]
3 90.185791 0.000060 0.000060 -135.617828 2.228885 0.850567 90.185791
4 90.185791 0.000060 0.000060 -135.617828 2.228885 0.850567 90.185791
[L_rear_hand01]
3 101.696655 -8.392275 -7.654577 -19.915020 -33.950905 119.950104 102.329041
4 101.696655 -8.392275 -7.654577 -19.915024 -33.950905 119.950104 102.329041
[L_rear_hand02]
3 102.726799 -1.568258 5.773216 77.862221 61.878510 165.399200 102.900848
4 102.726799 -1.568258 5.773216 77.862236 61.878510 165.399200 102.900848
[L_rear_hand03]
3 104.552910 9.721220 -10.420293 -173.099182 -23.740309 -117.327896 105.519653
4 104.552910 9.721220 -10.420293 -173.099182 -23.740307 -117.327896 105.519653
